<svg id="Capa_3" data-name="Capa 3" xmlns="http://www.w3.org/2000/svg" xmlns:xlink="http://www.w3.org/1999/xlink" viewBox="0 0 183.35 52.32"><defs><style>.cls-1{fill:url(#Degradado_sin_nombre_102);}.cls-2{fill:url(#Degradado_sin_nombre_50);}.cls-3{font-size:10.18px;fill:#72869b;font-family:nevis-Bold, nevis;font-weight:700;letter-spacing:0.2em;}.cls-4{letter-spacing:0.18em;}.cls-5{letter-spacing:0.2em;}.cls-6{letter-spacing:0.18em;}.cls-7{letter-spacing:0.19em;}.cls-8{letter-spacing:0.19em;}.cls-9{letter-spacing:0.19em;}.cls-10{fill:url(#Degradado_sin_nombre_103);}.cls-11{fill:url(#Degradado_sin_nombre_102-2);}.cls-12{fill:url(#Degradado_sin_nombre_103-2);}.cls-13{fill:url(#Degradado_sin_nombre_103-3);}.cls-14{fill:url(#Degradado_sin_nombre_103-4);}.cls-15{fill:url(#Degradado_sin_nombre_50-2);}.cls-16{fill:url(#Degradado_sin_nombre_50-3);}.cls-17{fill:url(#Degradado_sin_nombre_103-5);}.cls-18{fill:url(#Degradado_sin_nombre_50-4);}.cls-19{fill:url(#Degradado_sin_nombre_50-5);}.cls-20{fill:url(#Degradado_sin_nombre_50-6);}.cls-21{fill:url(#Degradado_sin_nombre_102-3);}</style><linearGradient id="Degradado_sin_nombre_102" x1="163.2" y1="25.92" x2="168.41" y2="25.92" gradientUnits="userSpaceOnUse"><stop offset="0.04" stop-color="#94faff"/><stop offset="1" stop-color="#2a8aff"/></linearGradient><linearGradient id="Degradado_sin_nombre_50" x1="167.45" y1="13.88" x2="178.82" y2="33.58" gradientUnits="userSpaceOnUse"><stop offset="0" stop-color="#293947"/><stop offset="1" stop-color="#72869b"/></linearGradient><linearGradient id="Degradado_sin_nombre_103" x1="79.41" y1="33.11" x2="79.41" y2="4.34" gradientUnits="userSpaceOnUse"><stop offset="0.13" stop-color="#9ba9b8"/><stop offset="0.53" stop-color="#72869b"/></linearGradient><linearGradient id="Degradado_sin_nombre_102-2" x1="86.15" y1="4.34" x2="86.15" y2="32.61" xlink:href="#Degradado_sin_nombre_102"/><linearGradient id="Degradado_sin_nombre_103-2" x1="50.45" y1="4.86" x2="50.45" y2="33.11" xlink:href="#Degradado_sin_nombre_103"/><linearGradient id="Degradado_sin_nombre_103-3" x1="161.5" y1="32.63" x2="161.5" y2="4.34" xlink:href="#Degradado_sin_nombre_103"/><linearGradient id="Degradado_sin_nombre_103-4" x1="108.8" y1="32.63" x2="108.8" y2="4.34" xlink:href="#Degradado_sin_nombre_103"/><linearGradient id="Degradado_sin_nombre_50-2" x1="100.12" y1="14.54" x2="100.12" y2="32.63" xlink:href="#Degradado_sin_nombre_50"/><linearGradient id="Degradado_sin_nombre_50-3" x1="117.36" y1="21.62" x2="117.36" y2="4.34" xlink:href="#Degradado_sin_nombre_50"/><linearGradient id="Degradado_sin_nombre_103-5" x1="137.09" y1="32.61" x2="137.09" y2="4.32" xlink:href="#Degradado_sin_nombre_103"/><linearGradient id="Degradado_sin_nombre_50-4" x1="128.41" y1="14.52" x2="128.41" y2="32.61" xlink:href="#Degradado_sin_nombre_50"/><linearGradient id="Degradado_sin_nombre_50-5" x1="145.65" y1="4.32" x2="145.65" y2="21.6" xlink:href="#Degradado_sin_nombre_50"/><linearGradient id="Degradado_sin_nombre_50-6" x1="54.26" y1="11.74" x2="74.65" y2="23.51" xlink:href="#Degradado_sin_nombre_50"/><linearGradient id="Degradado_sin_nombre_102-3" x1="-0.06" y1="18.64" x2="37.26" y2="18.64" xlink:href="#Degradado_sin_nombre_102"/></defs><circle class="cls-1" cx="165.81" cy="25.92" r="2.6"/><path class="cls-2" d="M172.7,16.21,172,14.67a3.48,3.48,0,0,0-2.71-1.29,3.53,3.53,0,0,0-3.38,2.53l.25-.47,2.28,4.86,5.79,12.33h6.25Z" transform="translate(0.06 0.02)"/><text class="cls-3" transform="translate(124.13 50.18)">G<tspan class="cls-4" x="9.56" y="0">E</tspan><tspan class="cls-5" x="18.36" y="0">N</tspan><tspan class="cls-6" x="28.58" y="0">E</tspan><tspan class="cls-7" x="37.38" y="0">S</tspan><tspan class="cls-8" x="45.82" y="0">I</tspan><tspan class="cls-9" x="50.77" y="0">S</tspan></text><path class="cls-10" d="M78.15,23.85a5.36,5.36,0,0,1-.27-1.67V4.34H72.23V22.22a10.64,10.64,0,0,0,3.25,7.71,10.59,10.59,0,0,0,7.73,3.18,11.21,11.21,0,0,0,3.37-.5,10.49,10.49,0,0,1-5.35-2.95A10.58,10.58,0,0,1,78.15,23.85Z" transform="translate(0.06 0.02)"/><path class="cls-11" d="M94.11,22.18V4.34H88.46V22.22h0a5.36,5.36,0,0,1-1.57,3.71,6.76,6.76,0,0,1-.66.56,5,5,0,0,1-3.06,1,5.1,5.1,0,0,1-3.75-1.53,5.27,5.27,0,0,1-1.31-2.08,10.58,10.58,0,0,0,3.08,5.81,10.49,10.49,0,0,0,5.35,2.95,10.69,10.69,0,0,0,4.36-2.7A10.53,10.53,0,0,0,94.12,23q0-.42,0-.84Z" transform="translate(0.06 0.02)"/><path class="cls-12" d="M53.26,14V4.86H47.63V17.11c0,.24,0,.47,0,.71V33.11h.08a12.32,12.32,0,0,0,5.57-9.58V22.42l0,0V14Z" transform="translate(0.06 0.02)"/><path class="cls-13" d="M169.26,13.38A3.48,3.48,0,0,1,172,14.67L167.09,4.34h-1.65L151,32.63h6.34l8.51-16.72A3.53,3.53,0,0,1,169.26,13.38Z" transform="translate(0.06 0.02)"/><path class="cls-14" d="M114.41,19.9,99.05,4.34H97.27v11.1a3.94,3.94,0,0,1,5.7.73l15.86,16.46h1.49v-12a4,4,0,0,1-5.91-.7Z" transform="translate(0.06 0.02)"/><path class="cls-15" d="M99.78,14.54a4,4,0,0,0-2.51.9V32.63h5.65V16.12l0,.05A3.93,3.93,0,0,0,99.78,14.54Z" transform="translate(0.06 0.02)"/><path class="cls-16" d="M114.67,4.34V20.16l-.26-.26a4,4,0,0,0,5.91.7V4.34Z" transform="translate(0.06 0.02)"/><path class="cls-17" d="M142.7,19.87,127.34,4.32h-1.77v11.1a3.93,3.93,0,0,1,5.69.73l15.86,16.46h1.49v-12a3.94,3.94,0,0,1-5.91-.71Z" transform="translate(0.06 0.02)"/><path class="cls-18" d="M128.07,14.52a3.92,3.92,0,0,0-2.5.9V32.61h5.65V16.1l0,0A3.93,3.93,0,0,0,128.07,14.52Z" transform="translate(0.06 0.02)"/><path class="cls-19" d="M143,4.32V20.14l-.26-.27a3.94,3.94,0,0,0,5.91.71V4.32Z" transform="translate(0.06 0.02)"/><path class="cls-20" d="M59.33,15.5l-.06-.1h0l9.88-11H61.53l-8.18,9-.07.07v4.35a4.72,4.72,0,0,1,1.16.7,9.3,9.3,0,0,1,1.82,2.63v0c.4.79.88,1.56,1.31,2.34l1.83,3.26,2,3.49,1.22,2.19.1.18H69.4Z" transform="translate(0.06 0.02)"/><path class="cls-21" d="M32,0H5.24a5.3,5.3,0,0,0-5.3,5.3V32a5.3,5.3,0,0,0,5.3,5.31H32A5.31,5.31,0,0,0,37.26,32V5.28A5.3,5.3,0,0,0,32,0ZM17.32,18.2a.44.44,0,0,1,0,.32.34.34,0,0,1-.15.18.4.4,0,0,1-.23.08.36.36,0,0,1-.23-.08.34.34,0,0,1-.15-.18.34.34,0,0,1,0-.32.57.57,0,0,1,.08-.13.41.41,0,0,1,.3-.12.38.38,0,0,1,.29.12A.38.38,0,0,1,17.32,18.2ZM15.16,9.6a1,1,0,0,1,.95-.78.91.91,0,0,1,.37.08,1,1,0,0,1,.58.7,1.11,1.11,0,0,1,0,.19,1.36,1.36,0,0,1,0,.2,1,1,0,0,1-.58.69.91.91,0,0,1-.37.08,1,1,0,0,1-.95-.77,1.36,1.36,0,0,1,0-.2A1.11,1.11,0,0,1,15.16,9.6ZM14.07,6a.42.42,0,0,1,.09-.14.41.41,0,0,1,.58,0,.42.42,0,0,1,.09.14.41.41,0,0,1,0,.16.45.45,0,0,1,0,.16.38.38,0,0,1-.15.18.41.41,0,0,1-.46,0,.38.38,0,0,1-.15-.18.45.45,0,0,1,0-.16A.41.41,0,0,1,14.07,6Zm.41,8.6a1.39,1.39,0,0,1-.74,1.82,1.32,1.32,0,0,1-.53.1,1.33,1.33,0,0,1-.54-.1,1.37,1.37,0,0,1-.44-.3,1.32,1.32,0,0,1-.3-.44,1.38,1.38,0,0,1,0-1.08,1.39,1.39,0,0,1,.74-.73,1.36,1.36,0,0,1,1.07,0A1.39,1.39,0,0,1,14.48,14.64Zm-.15,7.15a1.46,1.46,0,0,1-.16.19l0,0a1.33,1.33,0,0,1-.19.14l0,0a1.76,1.76,0,0,1-.2.09h0a1,1,0,0,1-.23.06h-.05l-.21,0h-.07l-.19,0-.08,0-.16-.05-.07,0-.22-.13h0a1.24,1.24,0,0,1-.22-.18,1.77,1.77,0,0,1-.16-.22,1.47,1.47,0,0,1-.19-.49,1.38,1.38,0,0,1,.24-1,1.6,1.6,0,0,1,.16-.19l0,0a1.33,1.33,0,0,1,.19-.14l0,0,.21-.1h0l.23-.06H13l.21,0h.08l.18,0,.08,0a1,1,0,0,1,.16.06l.07,0,.23.13h0a1.39,1.39,0,0,1,.56.9,2.11,2.11,0,0,1,0,.26A1.4,1.4,0,0,1,14.33,21.79ZM12.41,3.55a.3.3,0,0,1,.09-.13.39.39,0,0,1,.29-.13.38.38,0,0,1,.29.13.3.3,0,0,1,.09.13.42.42,0,0,1,0,.16.42.42,0,0,1,0,.16.34.34,0,0,1-.15.18.35.35,0,0,1-.23.07.39.39,0,0,1-.23-.07.34.34,0,0,1-.15-.18.44.44,0,0,1,0-.32ZM8.69,6.08l.37,0,.37,0a3.54,3.54,0,0,1,1,.26,3.5,3.5,0,0,1,1.37,1,3.19,3.19,0,0,1,.39.57,3.53,3.53,0,0,1,.43,1.71,3.5,3.5,0,0,1-.82,2.29,3.48,3.48,0,0,1-1.37,1,3.56,3.56,0,0,1-1,.27l-.37,0-.37,0a3.56,3.56,0,0,1-1-.27,3.48,3.48,0,0,1-1.37-1,3.5,3.5,0,0,1-.82-2.29A3.53,3.53,0,0,1,5.9,7.94a3.19,3.19,0,0,1,.39-.57,3.5,3.5,0,0,1,1.37-1A3.54,3.54,0,0,1,8.69,6.08Zm2,11.73a.41.41,0,0,1,0,.16.46.46,0,0,1-.16.18.35.35,0,0,1-.23.07.39.39,0,0,1-.23-.07A.44.44,0,0,1,9.92,18a.44.44,0,0,1,0-.32.42.42,0,0,1,.09-.14.43.43,0,0,1,.29-.12.45.45,0,0,1,.3.12l.09.14A.41.41,0,0,1,10.72,17.81ZM7.4,17.53a2,2,0,0,1,0,.25,1.29,1.29,0,0,1-.34.63,1.56,1.56,0,0,1-.4.27,1.23,1.23,0,0,1-1,0,1.36,1.36,0,0,1-.39-.27,1.22,1.22,0,0,1-.34-.63,1,1,0,0,1,0-.25,1.07,1.07,0,0,1,0-.25,1.26,1.26,0,0,1,.34-.63,1.16,1.16,0,0,1,.39-.26,1.13,1.13,0,0,1,.49-.1,1.12,1.12,0,0,1,.48.1,1.31,1.31,0,0,1,.4.26,1.34,1.34,0,0,1,.34.63A2.11,2.11,0,0,1,7.4,17.53Zm-2.85-14a1.07,1.07,0,0,1,.3-.3,1.09,1.09,0,0,1,1.23,0,1.11,1.11,0,0,1,.49.91,1.64,1.64,0,0,1,0,.23,1.13,1.13,0,0,1-.17.39,1.09,1.09,0,0,1-.13.17,1,1,0,0,1-.35.23,1.07,1.07,0,0,1-.43.09A1,1,0,0,1,5,5.14a1,1,0,0,1-.36-.23,1.09,1.09,0,0,1-.13-.17,1.13,1.13,0,0,1-.17-.39,1.64,1.64,0,0,1,0-.23A1.08,1.08,0,0,1,4.55,3.51ZM6.55,32a1.18,1.18,0,0,1-.17.4,1,1,0,0,1-.13.16,1.21,1.21,0,0,1-.35.24,1.26,1.26,0,0,1-.43.08A1.18,1.18,0,0,1,5,32.79a1.13,1.13,0,0,1-.36-.24,1,1,0,0,1-.13-.16,1.18,1.18,0,0,1-.17-.4,1.64,1.64,0,0,1,0-.22,1.11,1.11,0,0,1,.19-.62,1.07,1.07,0,0,1,.3-.3,1.09,1.09,0,0,1,1.23,0,1.07,1.07,0,0,1,.3.3,1.11,1.11,0,0,1,.19.62A1.64,1.64,0,0,1,6.55,32ZM7.9,23.15a2.24,2.24,0,0,1-.14.46,1.51,1.51,0,0,1-.11.22,2.11,2.11,0,0,1-.26.4,2.68,2.68,0,0,1-.74.6,2.44,2.44,0,0,1-.44.19,2.65,2.65,0,0,1-.74.11A2.55,2.55,0,0,1,4.73,25a2.25,2.25,0,0,1-.45-.19,2.5,2.5,0,0,1-.73-.6,1.76,1.76,0,0,1-.27-.4,1.51,1.51,0,0,1-.11-.22A2.24,2.24,0,0,1,3,23.15a2.07,2.07,0,0,1,0-.5,2.5,2.5,0,0,1,.3-1.19,2.57,2.57,0,0,1,1-1,2.25,2.25,0,0,1,.45-.19,2.55,2.55,0,0,1,.74-.11,2.65,2.65,0,0,1,.74.11,2.44,2.44,0,0,1,.44.19,2.19,2.19,0,0,1,.57.43,2.37,2.37,0,0,1,.43.57A2.5,2.5,0,0,1,8,22.65,2.07,2.07,0,0,1,7.9,23.15Zm2.23,8.09a.38.38,0,0,1-.15.18.41.41,0,0,1-.46,0,.38.38,0,0,1-.15-.18.45.45,0,0,1,0-.16.41.41,0,0,1,0-.16.42.42,0,0,1,.09-.14.41.41,0,0,1,.58,0,.42.42,0,0,1,.09.14.41.41,0,0,1,0,.16A.45.45,0,0,1,10.13,31.24Zm.22-4a1.16,1.16,0,0,1-.39.26,1.13,1.13,0,0,1-.49.1,1.12,1.12,0,0,1-.48-.1,1.31,1.31,0,0,1-.4-.26,1.24,1.24,0,0,1-.33-.63,1.07,1.07,0,0,1,0-.25,1,1,0,0,1,0-.25,1.2,1.2,0,0,1,.33-.63,1.34,1.34,0,0,1,.4-.27,1.23,1.23,0,0,1,1,0,1.19,1.19,0,0,1,.39.27,1.22,1.22,0,0,1,.34.63,1,1,0,0,1,0,.25,1.07,1.07,0,0,1,0,.25A1.26,1.26,0,0,1,10.35,27.26Zm2.83,6.56a1.19,1.19,0,0,1-.34.62,1.14,1.14,0,0,1-.39.27,1.34,1.34,0,0,1-.49.1,1.29,1.29,0,0,1-.48-.1,1.09,1.09,0,0,1-.4-.27,1.19,1.19,0,0,1-.34-.62,1.64,1.64,0,0,1,0-.51,1.19,1.19,0,0,1,.34-.62,1.09,1.09,0,0,1,.4-.27,1.29,1.29,0,0,1,.48-.1,1.34,1.34,0,0,1,.49.1,1.14,1.14,0,0,1,.39.27,1.19,1.19,0,0,1,.34.62,1.13,1.13,0,0,1,0,.25A1.15,1.15,0,0,1,13.18,33.82Zm5-6.16a3,3,0,0,1-.13.59,2.82,2.82,0,0,1-.28.64,3,3,0,0,1-2.31,1.48l-.31,0-.31,0a3.09,3.09,0,0,1-.87-.22,2.85,2.85,0,0,1-.75-.46,3.11,3.11,0,0,1-.69-.8,3.35,3.35,0,0,1-.28-.64,2.94,2.94,0,0,1-.12-.59c0-.11,0-.21,0-.31s0-.21,0-.32a2.94,2.94,0,0,1,.12-.59,3.35,3.35,0,0,1,.28-.64,3.11,3.11,0,0,1,.69-.8,2.85,2.85,0,0,1,.75-.46,3.09,3.09,0,0,1,.87-.22l.31,0,.31,0a3,3,0,0,1,2.31,1.48,2.82,2.82,0,0,1,.28.64,3,3,0,0,1,.13.59c0,.11,0,.21,0,.32S18.18,27.55,18.17,27.66ZM19,23.77a.4.4,0,0,1-.38.26.48.48,0,0,1-.24-.07.58.58,0,0,1-.15-.19.41.41,0,0,1,0-.16.45.45,0,0,1,0-.16l.09-.13a.41.41,0,0,1,.3-.12.4.4,0,0,1,.29.12.38.38,0,0,1,.09.13.45.45,0,0,1,0,.16A.41.41,0,0,1,19,23.77Zm.28-5.53a2,2,0,0,1-.24-.77,1.48,1.48,0,0,1,0-.21A1.55,1.55,0,0,1,19,17a2,2,0,0,1,.24-.77l.1-.17a2.07,2.07,0,0,1,.74-.67,2,2,0,0,1,.77-.24h.43a2,2,0,0,1,.77.24,2,2,0,0,1,.73.67,1,1,0,0,1,.11.17,2.17,2.17,0,0,1,.24.77c0,.07,0,.14,0,.22s0,.14,0,.21a2.17,2.17,0,0,1-.24.77,1,1,0,0,1-.11.17,2,2,0,0,1-.73.67,2,2,0,0,1-.77.24h-.43a2,2,0,0,1-.77-.24,2.07,2.07,0,0,1-.74-.67Zm.3-5.55a.83.83,0,0,1,.51-.76.79.79,0,0,1,.65,0,.84.84,0,0,1,0,1.53.88.88,0,0,1-.33.06.87.87,0,0,1-.32-.06A.83.83,0,0,1,19.56,12.69ZM21.5,22a.47.47,0,0,1,0,.17.65.65,0,0,1-.15.18.48.48,0,0,1-.24.07.48.48,0,0,1-.23-.07.52.52,0,0,1-.15-.18.47.47,0,0,1,0-.17.45.45,0,0,1,0-.16.38.38,0,0,1,.09-.13.45.45,0,0,1,.29-.12.45.45,0,0,1,.3.12.6.6,0,0,1,.09.13A.45.45,0,0,1,21.5,22Zm12.71-.53a15.59,15.59,0,0,0-4,.45,12.14,12.14,0,0,0-1.68.53l-.2.08h0l0,0-.36.16c-.24.11-.47.23-.7.36a12.92,12.92,0,0,0-1.17.75l-.13.1,0,0-.24.2-.44.39a12.6,12.6,0,0,0-.88.91l-.22.27a.61.61,0,0,0-.07.1h0l-.33.47a12.2,12.2,0,0,0-1.11,2c0,.09-.08.19-.13.29h0l0,.09c-.07.15-.13.31-.19.47-.11.31-.22.62-.31.94a15.88,15.88,0,0,0-.43,1.81c0,.24-.09.49-.12.74v0a.88.88,0,0,1,0,.17l0,.31a12.21,12.21,0,0,0-.07,1.35.83.83,0,0,1-1.66,0,12.9,12.9,0,0,1,.12-1.76,15.81,15.81,0,0,1,3.13-8,12,12,0,0,1,4.29-3.42,16.72,16.72,0,0,1,7.11-1.46A.83.83,0,0,1,34.21,21.42Zm-9.39-2.13a.14.14,0,0,1,0-.07A.76.76,0,0,1,25,19a.89.89,0,0,1,.56-.38l.17,0h.17l0,0a.29.29,0,0,1,.1,0l.06,0,.09.05.05,0a.19.19,0,0,1,.07.06l.05,0,.06.08a.1.1,0,0,1,0,0,.41.41,0,0,1,0,.09l0,.05c0,.05,0,.11.05.16a1,1,0,0,1,0,.35.94.94,0,0,1-.24.45.93.93,0,0,1-.46.24h0l-.17,0h-.22l-.1,0-.06,0-.08,0,0,0-.08-.07-.05,0L25,20l0,0-.05-.09s0,0,0,0a1,1,0,0,1-.05-.16A.91.91,0,0,1,24.82,19.29Zm9.39-1.78a16.06,16.06,0,0,1-7.79-1.8,13.28,13.28,0,0,1-6.09-7.9,16,16,0,0,1-.77-4.95c0-1.06,1.69-1.06,1.66,0a13,13,0,0,0,.1,1.66l0,.2h0c0,.12,0,.23,0,.35s.09.53.15.79a14.7,14.7,0,0,0,.5,1.87c.1.32.22.64.35.95,0,.05.11.27,0,0a.3.3,0,0,1,0,.1l.11.24.23.48A15,15,0,0,0,24,11.49l0,0,0,0,.08.1.18.22.4.44a11.13,11.13,0,0,0,.94.88l.27.22h0l.13.09.51.35a11.61,11.61,0,0,0,1.24.7l.38.18.07,0,.13.05c.23.1.46.18.7.26a13,13,0,0,0,1.51.42,13.81,13.81,0,0,0,1.64.26c.65.07,1.31.09,2,.1A.83.83,0,0,1,34.21,17.51Z" transform="translate(0.06 0.02)"/></svg>